<svg width="81" height="81" viewBox="0 0 81 81" fill="none" xmlns="http://www.w3.org/2000/svg">
<path d="M28.2381 64.6126L20.9248 67.2039V35.5459C20.9248 31.5062 25.0808 25.8892 28.2542 25.8892L28.2381 64.6126Z" fill="url(#paint0_linear_213_268)"/>
<path d="M31.8787 49.049V10.1967L39.2081 7.65381V38.3783C39.2081 42.418 35.1809 49.049 31.8787 49.049Z" fill="url(#paint1_linear_213_268)"/>
<path d="M60.0207 23.9736C60.3713 24.3812 60.8072 24.7068 61.2975 24.9275C61.7879 25.1482 62.3208 25.2587 62.8586 25.251C63.3964 25.2433 63.9259 25.1177 64.4097 24.8831C64.8936 24.6485 65.32 24.3105 65.6588 23.8932C66.1984 23.1935 66.4747 22.3265 66.4393 21.4439C66.404 20.5613 66.0593 19.7192 65.4654 19.0648C62.5504 15.6767 58.9771 12.9154 54.962 10.9483C50.9469 8.98131 46.5739 7.84951 42.1079 7.62158V14.9929C45.544 15.2126 48.9007 16.1209 51.9781 17.6638C55.0555 19.2067 57.7907 21.3526 60.0207 23.9736Z" fill="#2C3F68"/>
<path d="M14.6749 40.5827C14.7001 33.9874 17.2571 27.653 21.8187 22.8858C26.3804 18.1185 32.5989 15.2817 39.1922 14.9602V7.60498C32.6472 7.83882 26.3196 10.0118 21.0138 13.8477C15.7079 17.6836 11.6635 23.0092 9.39462 29.1474C7.12573 35.2856 6.73486 41.9593 8.27169 48.3201C9.80853 54.6808 13.2037 60.4413 18.0255 64.8694V53.2169C15.8336 49.366 14.6791 45.0128 14.6749 40.5827Z" fill="#2C3F68"/>
<path d="M65.0303 56.5651C64.2546 56.0273 63.3059 55.7985 62.3701 55.9235C61.4343 56.0486 60.5791 56.5185 59.9722 57.2411C57.5647 60.0654 54.572 62.3336 51.2012 63.8891C47.8303 65.4446 44.1615 66.2502 40.4485 66.2502C36.7355 66.2502 33.0667 65.4446 29.6958 63.8891C26.3249 62.3336 23.3323 60.0654 20.9248 57.2411V67.1714C27.6613 72.116 36.024 74.324 44.3259 73.3503C52.6278 72.3766 60.2513 68.2935 65.6585 61.9246C65.9891 61.5399 66.2363 61.091 66.3845 60.6061C66.5327 60.1212 66.5788 59.6109 66.5198 59.1073C66.4607 58.6038 66.2979 58.1179 66.0415 57.6803C65.7852 57.2428 65.4409 56.8631 65.0303 56.5651Z" fill="#2C3F68"/>
<path d="M40.2876 80.4492C32.3991 80.4492 24.6877 78.1121 18.1287 73.7333C11.5696 69.3545 6.45747 63.1308 3.43867 55.8491C0.419869 48.5675 -0.369987 40.5549 1.16899 32.8248C2.70796 25.0946 6.50664 17.994 12.0847 12.4209C17.6627 6.84773 24.7695 3.05237 32.5064 1.51475C40.2434 -0.0228749 48.2629 0.76629 55.5509 3.78245C62.839 6.79861 69.0682 11.9063 73.4508 18.4596C77.8334 25.0129 80.1726 32.7175 80.1726 40.5991C80.1641 51.1654 75.9592 61.2965 68.4811 68.768C61.0031 76.2395 50.8632 80.4407 40.2876 80.4492ZM40.2876 2.88962C32.819 2.88962 25.5181 5.10259 19.3083 9.24865C13.0986 13.3947 8.25901 19.2876 5.40162 26.182C2.54423 33.0764 1.79742 40.6626 3.25565 47.9811C4.71388 55.2995 8.31165 62.0216 13.5939 67.297C18.8762 72.5723 25.6056 76.1641 32.9311 77.6179C40.2567 79.0717 47.8492 78.3224 54.7484 75.4645C61.6476 72.6067 67.5436 67.7688 71.6906 61.5627C75.8377 55.3567 78.0495 48.0612 78.0463 40.5991C78.0335 30.5991 74.0507 21.0125 66.9719 13.9429C59.8931 6.87331 50.2964 2.89813 40.2876 2.88962Z" fill="url(#paint2_linear_213_268)"/>
<defs>
<linearGradient id="paint0_linear_213_268" x1="48.2773" y1="5.59394" x2="0.837005" y2="92.6682" gradientUnits="userSpaceOnUse">
<stop stop-color="#BC8459"/>
<stop offset="0.28" stop-color="#97623E"/>
<stop offset="0.42" stop-color="#C3825A"/>
<stop offset="0.55" stop-color="#EA9E72"/>
<stop offset="0.63" stop-color="#F9A97B"/>
<stop offset="0.71" stop-color="#E79B70"/>
<stop offset="0.88" stop-color="#BA7753"/>
<stop offset="1" stop-color="#975B3D"/>
</linearGradient>
<linearGradient id="paint1_linear_213_268" x1="49.6143" y1="60.7175" x2="23.0098" y2="-0.635798" gradientUnits="userSpaceOnUse">
<stop stop-color="#BC8459"/>
<stop offset="0.28" stop-color="#97623E"/>
<stop offset="0.42" stop-color="#C3825A"/>
<stop offset="0.55" stop-color="#EA9E72"/>
<stop offset="0.63" stop-color="#F9A97B"/>
<stop offset="0.71" stop-color="#E79B70"/>
<stop offset="0.88" stop-color="#BA7753"/>
<stop offset="1" stop-color="#975B3D"/>
</linearGradient>
<linearGradient id="paint2_linear_213_268" x1="0.418714" y1="40.5991" x2="80.1726" y2="40.5991" gradientUnits="userSpaceOnUse">
<stop stop-color="#BC8459"/>
<stop offset="0.28" stop-color="#97623E"/>
<stop offset="0.42" stop-color="#C3825A"/>
<stop offset="0.55" stop-color="#EA9E72"/>
<stop offset="0.63" stop-color="#F9A97B"/>
<stop offset="0.71" stop-color="#E79B70"/>
<stop offset="0.88" stop-color="#BA7753"/>
<stop offset="1" stop-color="#975B3D"/>
</linearGradient>
</defs>
</svg>
