<?xml version="1.0" encoding="utf-8"?><svg viewBox="0 0 81 81" xmlns="http://www.w3.org/2000/svg" xmlns:xlink="http://www.w3.org/1999/xlink"><style>:root>svg{display:none}:root>svg:target{display:block}</style><svg fill="none" viewBox="0 0 22 36" id="arrow" xmlns="http://www.w3.org/2000/svg"><path d="M3.313 33.055 18.34 18.028 3.312 3" stroke="#000" stroke-width="4" stroke-linecap="square"/></svg><svg fill="none" viewBox="0 0 52 64" id="locate" xmlns="http://www.w3.org/2000/svg"><path d="M41 24c6.075 0 11-4.925 11-11S47.075 2 41 2 30 6.925 30 13s4.925 11 11 11Z" fill="url(#ba)"/><path fill-rule="evenodd" clip-rule="evenodd" d="M26.046 4.898a16.642 16.642 0 0 0-8.48-.639l-.01.002-.009.001a16.459 16.459 0 0 0-6.367 2.55 16.685 16.685 0 0 0-4.883 5.11l-.005.006a16.27 16.27 0 0 0-2.378 7.135 28.73 28.73 0 0 0 .727 8.544l.001.005A56.24 56.24 0 0 0 8.407 38.46l.004.009.004.009a83.466 83.466 0 0 0 5.785 10.7c1.204 1.827 2.442 3.59 3.691 5.371.609.867 1.22 1.737 1.831 2.62.284.386.563.751.849 1.121l.08-.102c1.94-2.68 3.915-5.428 5.709-8.17 1.545-2.435 2.94-4.978 4.358-7.56l.129-.235.002-.004a61.378 61.378 0 0 0 4.069-9.292l.003-.01.004-.011a40.323 40.323 0 0 0 2.212-10.027v-.013l.002-.013c.34-3.189-.176-6.411-1.497-9.333a16.678 16.678 0 0 0-4.764-5.98l-.008-.006A16.007 16.007 0 0 0 26.053 4.9l-.008-.002Zm.978-2.836a19.642 19.642 0 0 0-9.996-.754 19.458 19.458 0 0 0-7.522 3.015l-.004.003A19.685 19.685 0 0 0 3.74 10.35a19.27 19.27 0 0 0-2.816 8.466l-.002.017v.016a31.73 31.73 0 0 0 .801 9.453 59.24 59.24 0 0 0 3.96 11.416 86.463 86.463 0 0 0 5.994 11.084l.006.01.006.008c1.23 1.867 2.514 3.696 3.78 5.5.607.864 1.209 1.722 1.799 2.575l.013.019.013.018c.434.59.88 1.165 1.329 1.743.248.32.496.64.744.964l1.2 1.571 1.19-1.578c.284-.377.506-.652.728-.929.175-.217.35-.434.555-.701l.014-.018.013-.018c1.945-2.686 3.966-5.497 5.81-8.315l.005-.008.005-.009c1.6-2.52 3.038-5.14 4.444-7.703l.15-.273.005-.009a64.38 64.38 0 0 0 4.266-9.74 43.323 43.323 0 0 0 2.371-10.75c.395-3.72-.21-7.479-1.752-10.887l-.005-.01-.005-.011a19.678 19.678 0 0 0-5.625-7.066 19.008 19.008 0 0 0-5.712-3.124Z" fill="#fff"/><path fill-rule="evenodd" clip-rule="evenodd" d="M21 26a4 4 0 1 0 0-8 4 4 0 0 0 0 8Zm0 3a7 7 0 1 0 0-14 7 7 0 0 0 0 14Z" fill="#fff"/><defs><linearGradient id="ba" x1="18.803" y1="28.222" x2="62.813" y2="-1.946" gradientUnits="userSpaceOnUse"><stop stop-color="#BC8459"/><stop offset=".28" stop-color="#97623E"/><stop offset=".42" stop-color="#C3825A"/><stop offset=".55" stop-color="#EA9E72"/><stop offset=".63" stop-color="#F9A97B"/><stop offset=".71" stop-color="#E79B70"/><stop offset=".88" stop-color="#BA7753"/><stop offset="1" stop-color="#975B3D"/></linearGradient></defs></svg><svg fill="none" viewBox="0 0 81 81" id="logo" xmlns="http://www.w3.org/2000/svg"><path d="m28.238 64.613-7.313 2.59V35.547c0-4.04 4.156-9.657 7.33-9.657l-.017 38.724Z" fill="url(#ca)"/><path d="M31.879 49.049V10.197l7.33-2.543v30.724c0 4.04-4.028 10.671-7.33 10.671Z" fill="url(#cb)"/><path d="M60.02 23.974a3.672 3.672 0 0 0 5.639-.08 3.764 3.764 0 0 0-.194-4.83A33.02 33.02 0 0 0 42.108 7.623v7.37a25.678 25.678 0 0 1 17.913 8.982ZM14.675 40.583a25.74 25.74 0 0 1 7.144-17.697 25.784 25.784 0 0 1 17.373-7.926V7.605a33.041 33.041 0 0 0-18.178 6.243 32.997 32.997 0 0 0-11.62 15.3A32.967 32.967 0 0 0 8.273 48.32a32.989 32.989 0 0 0 9.754 16.55V53.216a25.59 25.59 0 0 1-3.351-12.634Z" fill="#2C3F68"/><path d="M65.03 56.565a3.789 3.789 0 0 0-5.058.676 25.643 25.643 0 0 1-19.523 9.01 25.664 25.664 0 0 1-19.524-9.01v9.93a33.044 33.044 0 0 0 44.733-5.246 3.668 3.668 0 0 0-.628-5.36Z" fill="#2C3F68"/><path d="M40.288 80.45a39.91 39.91 0 0 1-22.16-6.717A39.857 39.857 0 0 1 3.439 55.85a39.818 39.818 0 0 1 8.647-43.428A39.917 39.917 0 0 1 55.55 3.783a39.877 39.877 0 0 1 17.9 14.677 39.825 39.825 0 0 1 6.722 22.14A39.864 39.864 0 0 1 68.48 68.767a39.935 39.935 0 0 1-28.193 11.681Zm0-77.56a37.783 37.783 0 0 0-20.98 6.359A37.733 37.733 0 0 0 5.402 26.182a37.695 37.695 0 0 0 8.192 41.115 37.79 37.79 0 0 0 41.154 8.168 37.75 37.75 0 0 0 16.943-13.902 37.701 37.701 0 0 0 6.355-20.964 37.741 37.741 0 0 0-11.074-26.656A37.808 37.808 0 0 0 40.288 2.89Z" fill="url(#cc)"/><defs><linearGradient id="ca" x1="48.277" y1="5.594" x2=".837" y2="92.668" gradientUnits="userSpaceOnUse"><stop stop-color="#BC8459"/><stop offset=".28" stop-color="#97623E"/><stop offset=".42" stop-color="#C3825A"/><stop offset=".55" stop-color="#EA9E72"/><stop offset=".63" stop-color="#F9A97B"/><stop offset=".71" stop-color="#E79B70"/><stop offset=".88" stop-color="#BA7753"/><stop offset="1" stop-color="#975B3D"/></linearGradient><linearGradient id="cb" x1="49.614" y1="60.718" x2="23.01" y2="-.636" gradientUnits="userSpaceOnUse"><stop stop-color="#BC8459"/><stop offset=".28" stop-color="#97623E"/><stop offset=".42" stop-color="#C3825A"/><stop offset=".55" stop-color="#EA9E72"/><stop offset=".63" stop-color="#F9A97B"/><stop offset=".71" stop-color="#E79B70"/><stop offset=".88" stop-color="#BA7753"/><stop offset="1" stop-color="#975B3D"/></linearGradient><linearGradient id="cc" x1=".419" y1="40.599" x2="80.173" y2="40.599" gradientUnits="userSpaceOnUse"><stop stop-color="#BC8459"/><stop offset=".28" stop-color="#97623E"/><stop offset=".42" stop-color="#C3825A"/><stop offset=".55" stop-color="#EA9E72"/><stop offset=".63" stop-color="#F9A97B"/><stop offset=".71" stop-color="#E79B70"/><stop offset=".88" stop-color="#BA7753"/><stop offset="1" stop-color="#975B3D"/></linearGradient></defs></svg><svg fill="none" viewBox="0 0 80 56" id="super" xmlns="http://www.w3.org/2000/svg"><path d="M11 24c6.075 0 11-4.925 11-11S17.075 2 11 2 0 6.925 0 13s4.925 11 11 11Z" fill="url(#da)"/><path d="M19.466 2.274h48.621l9.253 11.06-33.344 39.687-33.353-40.01 8.823-10.737Z" stroke="#fff" stroke-width="3" stroke-miterlimit="10"/><path d="M30.842 8.187c-2.764-.391-6.05 7.076 2.587 7.645s34.043-2.786 34.389 8.673M20.797 25.125c4.323 4.774 9.463 2.285 26.645.68 14.646-1.36 14.056 4.417 12.202 8.324M30.522 36.975c7.5 5.648 19.28 6.124 25.414 1.401M50.206 2.571s7.828 3.661 9.202 8.869h9.033V2.945" stroke="#fff" stroke-width="3" stroke-miterlimit="10" stroke-linecap="round"/><defs><linearGradient id="da" x1="-5.632" y1="22.732" x2="28.469" y2="2.782" gradientUnits="userSpaceOnUse"><stop stop-color="#BC8459"/><stop offset=".28" stop-color="#97623E"/><stop offset=".42" stop-color="#C3825A"/><stop offset=".55" stop-color="#EA9E72"/><stop offset=".63" stop-color="#F9A97B"/><stop offset=".71" stop-color="#E79B70"/><stop offset=".88" stop-color="#BA7753"/><stop offset="1" stop-color="#975B3D"/></linearGradient></defs></svg><svg fill="none" viewBox="0 0 45 70" id="tower" xmlns="http://www.w3.org/2000/svg"><path d="M35 58c5.523 0 10-4.477 10-10s-4.477-10-10-10-10 4.477-10 10 4.477 10 10 10Z" fill="url(#ea)"/><path fill-rule="evenodd" clip-rule="evenodd" d="M19.164 10.989a1.5 1.5 0 0 1 1.385 1.606l-1.496-.11 1.496.11v.002l-.003.049-.011.141-.045.54c-.04.47-.1 1.154-.184 2.012a210.33 210.33 0 0 1-.794 6.92c-.733 5.575-1.906 12.727-3.66 18.906-1.764 6.216-4.858 12.935-7.483 18.06a165.541 165.541 0 0 1-3.404 6.307 129.145 129.145 0 0 1-1.335 2.292l-.076.127-.02.033-.007.011-1.282-.779 1.281.78a1.5 1.5 0 0 1-2.562-1.56m0 0 .005-.008.018-.03.07-.117.278-.466c.24-.409.59-1.008 1.022-1.766a162.57 162.57 0 0 0 3.342-6.19c2.595-5.068 5.583-11.58 7.267-17.514 1.695-5.97 2.845-12.954 3.572-18.477.362-2.755.617-5.133.782-6.82a156.702 156.702 0 0 0 .224-2.498l.01-.134.004-.042a1.5 1.5 0 0 1 1.606-1.386" fill="#fff"/><path fill-rule="evenodd" clip-rule="evenodd" d="M17.08 6.592a1.5 1.5 0 0 1 1.5-1.5h6.323l.008 1.502v.039l.002.158.012.622c.012.546.036 1.345.078 2.35.086 2.01.25 4.845.566 8.129.632 6.585 1.863 14.901 4.243 22.016 3.23 9.35 7.33 18.37 12.244 26.939a1.5 1.5 0 0 1-2.602 1.493 160.512 160.512 0 0 1-12.48-27.46l-.003-.006-.002-.007c-2.487-7.434-3.746-16.014-4.386-22.689a158.18 158.18 0 0 1-.577-8.287c-.03-.702-.05-1.307-.064-1.8H18.58a1.5 1.5 0 0 1-1.5-1.5Z" fill="#fff"/><path fill-rule="evenodd" clip-rule="evenodd" d="M20.597.757a1.5 1.5 0 0 1 1.5 1.5V6.29a1.5 1.5 0 0 1-3 0V2.257a1.5 1.5 0 0 1 1.5-1.5ZM11.39 33.97a1.5 1.5 0 0 1 1.5-1.5h16.771a1.5 1.5 0 0 1 0 3h-16.77a1.5 1.5 0 0 1-1.5-1.5ZM6.858 49.048a1.5 1.5 0 0 1 1.5-1.5h25.91a1.5 1.5 0 1 1 0 3H8.358a1.5 1.5 0 0 1-1.5-1.5ZM12.456 68.363a1.5 1.5 0 0 1-2.912-.725L11 68c-1.456-.362-1.456-.362-1.455-.363v-.005l.003-.01.008-.03.026-.097a16.351 16.351 0 0 1 .506-1.482c.369-.933.956-2.186 1.828-3.443 1.746-2.519 4.747-5.187 9.453-5.066 4.64.119 7.69 2.734 9.515 5.177a17.796 17.796 0 0 1 2.397 4.429 11.11 11.11 0 0 1 .143.417l.008.028.003.01.002.003v.002l-1.387.415 1.387-.414a1.5 1.5 0 0 1-2.873.861l-.001-.002-.002-.007a13.294 13.294 0 0 0-.465-1.185c-.34-.756-.867-1.76-1.615-2.761-1.497-2.004-3.783-3.887-7.189-3.974-3.339-.086-5.503 1.745-6.91 3.776a14.235 14.235 0 0 0-1.924 4.076l-.003.008Z" fill="#fff"/><defs><linearGradient id="ea" x1="19.872" y1="56.846" x2="50.893" y2="38.705" gradientUnits="userSpaceOnUse"><stop stop-color="#BC8459"/><stop offset=".28" stop-color="#97623E"/><stop offset=".42" stop-color="#C3825A"/><stop offset=".55" stop-color="#EA9E72"/><stop offset=".63" stop-color="#F9A97B"/><stop offset=".71" stop-color="#E79B70"/><stop offset=".88" stop-color="#BA7753"/><stop offset="1" stop-color="#975B3D"/></linearGradient></defs></svg></svg>