<?xml version="1.0" encoding="utf-8"?><svg viewBox="0 0 25 25" xmlns="http://www.w3.org/2000/svg" xmlns:xlink="http://www.w3.org/1999/xlink"><style>:root>svg{display:none}:root>svg:target{display:block}</style><svg fill="none" viewBox="0 0 25 25" id="cart" xmlns="http://www.w3.org/2000/svg"><path d="M3.817 5.48 0 1.666 1.665 0l3.816 3.817h17.937a1.177 1.177 0 0 1 1.128 1.514l-2.825 9.415a1.177 1.177 0 0 1-1.127.84H6.17v2.353h12.946v2.354H4.993a1.177 1.177 0 0 1-1.176-1.177V5.48Zm2.353.69v7.061h13.548l2.119-7.06H6.17ZM5.582 25a1.766 1.766 0 1 1 0-3.531 1.766 1.766 0 0 1 0 3.531Zm14.122 0a1.765 1.765 0 1 1 0-3.53 1.765 1.765 0 0 1 0 3.53Z" fill="#fff"/></svg><svg fill="none" viewBox="0 0 17 17" id="inst" xmlns="http://www.w3.org/2000/svg"><path d="M8.5 6.125a2.375 2.375 0 1 0 0 4.75 2.375 2.375 0 0 0 0-4.75Zm0-1.583a3.959 3.959 0 1 1 0 7.917 3.959 3.959 0 0 1 0-7.917Zm5.146-.198a.99.99 0 1 1-1.98 0 .99.99 0 0 1 1.98 0ZM8.5 2.167c-1.959 0-2.278.005-3.19.046-.62.029-1.037.112-1.423.262a2.285 2.285 0 0 0-.855.557c-.248.24-.438.532-.557.855-.15.388-.234.804-.262 1.423-.042.874-.046 1.18-.046 3.19 0 1.959.005 2.278.046 3.19.029.62.112 1.037.262 1.422.134.345.293.592.555.855.267.266.515.425.855.557.391.151.808.235 1.425.264.874.04 1.18.045 3.19.045 1.959 0 2.278-.005 3.19-.046.619-.029 1.036-.112 1.422-.262.343-.133.592-.293.855-.555.267-.267.426-.515.558-.855.15-.39.234-.808.262-1.425.042-.874.046-1.18.046-3.19 0-1.959-.005-2.278-.046-3.19-.029-.619-.112-1.037-.262-1.423a2.304 2.304 0 0 0-.557-.855 2.283 2.283 0 0 0-.855-.557c-.388-.15-.804-.234-1.423-.262-.874-.042-1.18-.046-3.19-.046Zm0-1.584c2.151 0 2.42.008 3.263.048s1.417.172 1.922.368a3.86 3.86 0 0 1 1.403.913c.403.396.714.874.913 1.403.196.504.329 1.079.368 1.922.037.844.048 1.112.048 3.263s-.008 2.42-.048 3.263-.172 1.417-.368 1.922a3.865 3.865 0 0 1-.913 1.403 3.89 3.89 0 0 1-1.403.913c-.504.196-1.079.329-1.922.368-.844.037-1.112.048-3.263.048s-2.42-.008-3.263-.048-1.417-.172-1.922-.368a3.87 3.87 0 0 1-1.403-.913 3.882 3.882 0 0 1-.913-1.402c-.196-.505-.329-1.08-.368-1.923C.594 10.92.583 10.651.583 8.5c0-2.15.008-2.42.048-3.263.04-.844.172-1.417.368-1.922.198-.53.51-1.008.913-1.403A3.877 3.877 0 0 1 3.315.999C3.82.803 4.393.67 5.237.631 6.08.594 6.349.583 8.5.583Z" fill="#E0BEA2"/></svg><svg fill="none" viewBox="0 0 25 24" id="like" xmlns="http://www.w3.org/2000/svg"><path d="M12.501 2.161c2.936-2.636 7.474-2.549 10.302.285a7.5 7.5 0 0 1 .295 10.295l-10.6 10.615L1.902 12.74a7.5 7.5 0 0 1 10.6-10.58Zm8.532 2.051a4.997 4.997 0 0 0-6.862-.19l-1.669 1.497-1.67-1.497a4.999 4.999 0 0 0-6.867.193 4.999 4.999 0 0 0-.24 6.813l8.775 8.79 8.775-8.788a5 5 0 0 0-.242-6.818Z" fill="#fff"/></svg><svg fill="none" viewBox="0 0 20 25" id="person" xmlns="http://www.w3.org/2000/svg"><path d="M.5 25a9.524 9.524 0 0 1 19.048 0h-2.381A7.143 7.143 0 0 0 2.88 25H.5Zm9.524-10.714A7.14 7.14 0 0 1 2.88 7.143 7.14 7.14 0 0 1 10.024 0a7.14 7.14 0 0 1 7.143 7.143 7.14 7.14 0 0 1-7.143 7.143Zm0-2.381a4.76 4.76 0 0 0 4.762-4.762 4.76 4.76 0 0 0-4.762-4.762 4.76 4.76 0 0 0-4.762 4.762 4.76 4.76 0 0 0 4.762 4.762Z" fill="#fff"/></svg><svg fill="none" viewBox="0 0 25 25" id="search" xmlns="http://www.w3.org/2000/svg"><path d="M19.729 17.989 25 23.259 23.259 25l-5.27-5.271a11.026 11.026 0 0 1-6.913 2.423C4.962 22.152 0 17.19 0 11.076 0 4.962 4.962 0 11.076 0c6.114 0 11.076 4.962 11.076 11.076a11.026 11.026 0 0 1-2.423 6.913Zm-2.469-.913a8.587 8.587 0 0 0 2.43-6 8.612 8.612 0 0 0-8.614-8.615 8.612 8.612 0 0 0-8.615 8.615 8.612 8.612 0 0 0 8.615 8.615 8.587 8.587 0 0 0 6-2.43l.184-.185Z" fill="#fff"/></svg><svg fill="none" viewBox="0 0 17 17" id="teleg" xmlns="http://www.w3.org/2000/svg"><path d="M8.5 14.833a6.334 6.334 0 1 0 0-12.667 6.334 6.334 0 0 0 0 12.667Zm0 1.584A7.917 7.917 0 1 1 8.5.584a7.917 7.917 0 0 1 0 15.833Zm-2.462-6.99L4.06 8.81c-.427-.131-.43-.426.096-.637l7.705-2.977c.448-.182.701.049.556.626l-1.312 6.19c-.091.442-.357.547-.725.343l-2.02-1.494-.94.909c-.097.093-.176.173-.324.193-.148.02-.27-.024-.36-.27l-.689-2.272-.01.005Z" fill="#E0BEA2"/></svg></svg>