<svg width="52" height="64" viewBox="0 0 52 64" fill="none" xmlns="http://www.w3.org/2000/svg">
<path d="M41 24C47.0751 24 52 19.0751 52 13C52 6.92487 47.0751 2 41 2C34.9249 2 30 6.92487 30 13C30 19.0751 34.9249 24 41 24Z" fill="url(#paint0_linear_140_167)"/>
<path fill-rule="evenodd" clip-rule="evenodd" d="M26.0455 4.89755C23.3215 3.95386 20.3997 3.73385 17.5655 4.25896L17.5565 4.26063L17.5475 4.26219C15.2698 4.65548 13.1001 5.52447 11.1795 6.81277C9.20652 8.14667 7.5415 9.88847 6.29661 11.9211L6.29225 11.9282L6.29223 11.9282C4.95324 14.0874 4.13854 16.5311 3.91363 19.0631C3.7274 21.9316 3.97271 24.8118 4.64135 27.6073L4.64242 27.6118C5.52381 31.3473 6.78512 34.9826 8.40655 38.4605L8.41085 38.4698L8.41503 38.479C10.0806 42.1821 12.0139 45.7583 14.1995 49.1792C15.4036 51.0064 16.6415 52.7697 17.8914 54.5502C18.4997 55.4166 19.1108 56.2871 19.7222 57.1709C20.0063 57.5558 20.2851 57.9211 20.5707 58.2911C20.5991 58.2549 20.6258 58.2207 20.6504 58.1889C22.591 55.5095 24.5663 52.7606 26.3599 50.0186C27.9053 47.5837 29.3008 45.041 30.7182 42.4583L30.8469 42.2237C30.8477 42.2224 30.8484 42.221 30.8492 42.2197C32.4593 39.2403 33.8202 36.1323 34.9178 32.9278L34.9214 32.9174L34.9251 32.907C36.0865 29.6728 36.8297 26.303 37.1366 22.8797L37.1377 22.8671L37.1391 22.8544C37.4796 19.6652 36.9629 16.443 35.6425 13.5213C34.5381 11.1849 32.9069 9.13769 30.8776 7.54104L30.8702 7.53526L30.8702 7.53524C29.4278 6.38571 27.7981 5.49428 26.0531 4.90015L26.0455 4.89757L26.0455 4.89755ZM27.0238 2.06155C23.8128 0.949881 20.369 0.690092 17.028 1.3075C14.3372 1.77343 11.7743 2.80086 9.50584 4.32302L9.50583 4.32301L9.50167 4.32582C7.17365 5.89926 5.20926 7.95364 3.74049 10.3506C2.15229 12.913 1.18746 15.813 0.923679 18.8171L0.922224 18.8336L0.921137 18.8502C0.713257 22.0235 0.983606 25.2101 1.7231 28.3029C2.6507 32.2336 3.97765 36.0589 5.68321 39.7189C7.40913 43.555 9.41245 47.2597 11.6772 50.8035L11.6828 50.8123L11.6886 50.8211C12.9184 52.6875 14.2027 54.5172 15.4694 56.3216C16.0756 57.1852 16.6778 58.043 17.268 58.8963L17.2809 58.915L17.2943 58.9332C17.7285 59.5221 18.1748 60.0978 18.6229 60.676C18.8709 60.9958 19.1194 61.3164 19.3668 61.6404L20.5662 63.2113L21.7565 61.6335C22.0409 61.2565 22.2627 60.9807 22.4852 60.704C22.6597 60.4871 22.8345 60.2696 23.0402 60.0026L23.0537 59.9851L23.0667 59.9671C25.0121 57.281 27.0333 54.4701 28.8762 51.6521L28.8817 51.6437L28.8872 51.6351C30.4871 49.1151 31.9251 46.4948 33.3313 43.9324C33.3814 43.8411 33.4314 43.7499 33.4815 43.6587L33.4815 43.6588L33.4861 43.6502C35.1742 40.5271 36.6011 37.2694 37.7523 33.9105C38.9966 30.4427 39.7934 26.83 40.1235 23.16C40.5184 19.4397 39.9134 15.6811 38.3706 12.2733L38.3658 12.2625L38.3607 12.2518C37.0585 9.49184 35.133 7.07286 32.7363 5.18621C31.0257 3.82366 29.0932 2.7666 27.0238 2.06155Z" fill="white"/>
<path fill-rule="evenodd" clip-rule="evenodd" d="M21 26C23.2091 26 25 24.2091 25 22C25 19.7909 23.2091 18 21 18C18.7909 18 17 19.7909 17 22C17 24.2091 18.7909 26 21 26ZM21 29C24.866 29 28 25.866 28 22C28 18.134 24.866 15 21 15C17.134 15 14 18.134 14 22C14 25.866 17.134 29 21 29Z" fill="white"/>
<defs>
<linearGradient id="paint0_linear_140_167" x1="18.8027" y1="28.2224" x2="62.8126" y2="-1.94619" gradientUnits="userSpaceOnUse">
<stop stop-color="#BC8459"/>
<stop offset="0.28" stop-color="#97623E"/>
<stop offset="0.42" stop-color="#C3825A"/>
<stop offset="0.55" stop-color="#EA9E72"/>
<stop offset="0.63" stop-color="#F9A97B"/>
<stop offset="0.71" stop-color="#E79B70"/>
<stop offset="0.88" stop-color="#BA7753"/>
<stop offset="1" stop-color="#975B3D"/>
</linearGradient>
</defs>
</svg>
