<svg width="45" height="70" viewBox="0 0 45 70" fill="none" xmlns="http://www.w3.org/2000/svg">
<path d="M35 58C40.5228 58 45 53.5228 45 48C45 42.4772 40.5228 38 35 38C29.4772 38 25 42.4772 25 48C25 53.5228 29.4772 58 35 58Z" fill="url(#paint0_linear_140_144)"/>
<path fill-rule="evenodd" clip-rule="evenodd" d="M19.1643 10.9885C19.9905 11.0498 20.6106 11.7692 20.5493 12.5954L19.0534 12.4844C20.5493 12.5954 20.5493 12.5951 20.5493 12.5954L20.5492 12.5966L20.5455 12.6457L20.5345 12.787C20.5246 12.9107 20.5099 13.0925 20.4899 13.3277C20.45 13.7979 20.3893 14.4814 20.3057 15.3387C20.1384 17.0531 19.8794 19.4648 19.5119 22.2591C18.7785 27.8342 17.6062 34.9856 15.8523 41.1646C14.0876 47.3814 10.9939 54.0998 8.36898 59.2255C7.05205 61.7971 5.84404 63.9853 4.96461 65.5317C4.52476 66.3052 4.16674 66.9187 3.91793 67.3401C3.79352 67.5508 3.69639 67.7135 3.62996 67.8243L3.55376 67.9508L3.53373 67.9839L3.52686 67.9952C3.52672 67.9954 3.52616 67.9964 2.24503 67.2162L3.52616 67.9964C3.09526 68.7039 2.17238 68.9282 1.46483 68.4973C0.757311 68.0664 0.533025 67.1436 0.963852 66.436M0.963852 66.436L0.968998 66.4276L0.986515 66.3986L1.05754 66.2807C1.12046 66.1758 1.21395 66.0192 1.33459 65.8149C1.57588 65.4062 1.9257 64.8067 2.35681 64.0487C3.2193 62.532 4.40571 60.3831 5.69875 57.8581C8.29375 52.7908 11.2822 46.2785 12.9663 40.3454C14.6612 34.3743 15.811 27.3905 16.5375 21.8678C16.8998 19.1132 17.1552 16.7354 17.3198 15.0475C17.4022 14.2037 17.4618 13.5328 17.5007 13.074C17.5202 12.8446 17.5345 12.6683 17.5438 12.5499L17.5543 12.4164L17.5575 12.3738C17.6188 11.5476 18.3382 10.9273 19.1643 10.9885" fill="white"/>
<path fill-rule="evenodd" clip-rule="evenodd" d="M17.0803 6.5918C17.0803 5.76337 17.7519 5.0918 18.5803 5.0918H24.9025L24.9112 6.59413L24.9116 6.63279C24.9119 6.66764 24.9125 6.72051 24.9135 6.79068C24.9154 6.93102 24.9189 7.14051 24.9251 7.41334C24.9375 7.95903 24.9606 8.75779 25.0034 9.76296C25.0891 11.7739 25.2536 14.6077 25.5689 17.8917C26.201 24.4772 27.4321 32.7931 29.8116 39.908C33.0413 49.2578 37.1411 58.2777 42.0561 66.847C42.4683 67.5656 42.2198 68.4823 41.5012 68.8945C40.7826 69.3066 39.8659 69.0582 39.4538 68.3396C34.4438 59.6046 30.2651 50.4105 26.9736 40.8804L26.9712 40.8736L26.9689 40.8667C24.4818 33.4332 23.2233 24.8528 22.5826 18.1784C22.2613 14.8315 22.0936 11.9436 22.0061 9.89066C21.9762 9.18886 21.9557 8.58425 21.9416 8.0918H18.5803C17.7519 8.0918 17.0803 7.42022 17.0803 6.5918Z" fill="white"/>
<path fill-rule="evenodd" clip-rule="evenodd" d="M20.5973 0.756836C21.4257 0.756836 22.0973 1.42841 22.0973 2.25684V6.2901C22.0973 7.11852 21.4257 7.7901 20.5973 7.7901C19.7689 7.7901 19.0973 7.11852 19.0973 6.2901V2.25684C19.0973 1.42841 19.7689 0.756836 20.5973 0.756836Z" fill="white"/>
<path fill-rule="evenodd" clip-rule="evenodd" d="M11.3904 33.9697C11.3904 33.1413 12.062 32.4697 12.8904 32.4697H29.6614C30.4898 32.4697 31.1614 33.1413 31.1614 33.9697C31.1614 34.7982 30.4898 35.4697 29.6614 35.4697H12.8904C12.062 35.4697 11.3904 34.7982 11.3904 33.9697Z" fill="white"/>
<path fill-rule="evenodd" clip-rule="evenodd" d="M6.85834 49.0479C6.85834 48.2194 7.52991 47.5479 8.35834 47.5479H34.2681C35.0966 47.5479 35.7681 48.2194 35.7681 49.0479C35.7681 49.8763 35.0966 50.5479 34.2681 50.5479H8.35834C7.52991 50.5479 6.85834 49.8763 6.85834 49.0479Z" fill="white"/>
<path fill-rule="evenodd" clip-rule="evenodd" d="M12.4555 68.3627C12.2554 69.166 11.4421 69.6554 10.6384 69.4558C9.83443 69.2561 9.34453 68.4425 9.54421 67.6385L11 68C9.54421 67.6385 9.54437 67.6379 9.54453 67.6372L9.54491 67.6357L9.54582 67.6321L9.5483 67.6223L9.55596 67.5927C9.56227 67.5687 9.57102 67.536 9.58231 67.4954C9.6049 67.414 9.63772 67.3004 9.6817 67.1592C9.76954 66.877 9.90247 66.4826 10.088 66.0136C10.457 65.0805 11.0441 63.8272 11.9157 62.5699C13.6618 60.0511 16.6632 57.3835 21.3693 57.5039C26.0092 57.6227 29.0581 60.2378 30.884 62.681C31.7971 63.9028 32.4288 65.1097 32.8326 66.0086C33.0353 66.4599 33.1829 66.8387 33.2814 67.1098C33.3307 67.2455 33.3678 67.3546 33.3935 67.4328C33.4064 67.472 33.4164 67.5034 33.4237 67.5266L33.4325 67.5552L33.4354 67.5647L33.4365 67.5683L33.437 67.5698C33.4371 67.5704 33.4373 67.571 32.0497 67.9852L33.4373 67.571C33.6743 68.3649 33.2228 69.2005 32.429 69.4374C31.6362 69.674 30.8017 69.224 30.5636 68.4321C30.5634 68.4314 30.5632 68.4308 30.563 68.4301L30.5607 68.423C30.5576 68.4129 30.5519 68.395 30.5436 68.3697C30.5269 68.319 30.4998 68.2391 30.4617 68.134C30.3852 67.9236 30.265 67.614 30.0961 67.238C29.7565 66.4822 29.2294 65.4785 28.4809 64.4769C26.9836 62.4733 24.698 60.5901 21.2925 60.503C17.9532 60.4175 15.7891 62.2481 14.3812 64.2791C13.6757 65.2967 13.1885 66.3312 12.8777 67.1171C12.7232 67.5077 12.6147 67.8306 12.5461 68.0509C12.5119 68.1608 12.4877 68.2447 12.4729 68.2981C12.4655 68.3248 12.4604 68.3438 12.4576 68.3546L12.4553 68.3635L12.4555 68.3627Z" fill="white"/>
<defs>
<linearGradient id="paint0_linear_140_144" x1="19.8724" y1="56.8457" x2="50.8931" y2="38.7047" gradientUnits="userSpaceOnUse">
<stop stop-color="#BC8459"/>
<stop offset="0.28" stop-color="#97623E"/>
<stop offset="0.42" stop-color="#C3825A"/>
<stop offset="0.55" stop-color="#EA9E72"/>
<stop offset="0.63" stop-color="#F9A97B"/>
<stop offset="0.71" stop-color="#E79B70"/>
<stop offset="0.88" stop-color="#BA7753"/>
<stop offset="1" stop-color="#975B3D"/>
</linearGradient>
</defs>
</svg>
